<mxfile host="app.diagrams.net" modified="2024-04-23T10:42:43.116Z" agent="Mozilla/5.0 (Macintosh; Intel Mac OS X 10_15_7) AppleWebKit/537.36 (KHTML, like Gecko) Chrome/124.0.0.0 Safari/537.36" etag="ljpSPvspgfxOb7naeEe5" version="24.2.5" type="device">
  <diagram id="2K3T6_yTXuT5FLqomoqI" name="Page-1">
    <mxGraphModel dx="2617" dy="1155" grid="1" gridSize="10" guides="1" tooltips="1" connect="1" arrows="1" fold="1" page="1" pageScale="1" pageWidth="827" pageHeight="1169" math="0" shadow="0">
      <root>
        <mxCell id="0" />
        <mxCell id="1" parent="0" />
        <mxCell id="U8cxuP6EORDSIx8_-4DE-3" value="Management Account" style="points=[[0,0],[0.25,0],[0.5,0],[0.75,0],[1,0],[1,0.25],[1,0.5],[1,0.75],[1,1],[0.75,1],[0.5,1],[0.25,1],[0,1],[0,0.75],[0,0.5],[0,0.25]];outlineConnect=0;gradientColor=none;html=1;whiteSpace=wrap;fontSize=12;fontStyle=0;container=1;pointerEvents=0;collapsible=0;recursiveResize=0;shape=mxgraph.aws4.group;grIcon=mxgraph.aws4.group_account;strokeColor=#CD2264;fillColor=none;verticalAlign=top;align=left;spacingLeft=30;fontColor=#CD2264;dashed=0;labelBackgroundColor=default;" parent="1" vertex="1">
          <mxGeometry x="54" y="40" width="856" height="640" as="geometry" />
        </mxCell>
        <mxCell id="U8cxuP6EORDSIx8_-4DE-4" value="eu-central-1" style="points=[[0,0],[0.25,0],[0.5,0],[0.75,0],[1,0],[1,0.25],[1,0.5],[1,0.75],[1,1],[0.75,1],[0.5,1],[0.25,1],[0,1],[0,0.75],[0,0.5],[0,0.25]];outlineConnect=0;gradientColor=none;html=1;whiteSpace=wrap;fontSize=12;fontStyle=0;container=1;pointerEvents=0;collapsible=0;recursiveResize=0;shape=mxgraph.aws4.group;grIcon=mxgraph.aws4.group_region;strokeColor=#147EBA;fillColor=none;verticalAlign=top;align=left;spacingLeft=30;fontColor=#147EBA;dashed=1;labelBackgroundColor=default;" parent="U8cxuP6EORDSIx8_-4DE-3" vertex="1">
          <mxGeometry x="36" y="40" width="804" height="470" as="geometry" />
        </mxCell>
        <mxCell id="U8cxuP6EORDSIx8_-4DE-6" value="&lt;span style=&quot;&quot; data-slate-fragment=&quot;JTVCJTdCJTIyX2tleSUyMiUzQSUyMjIxMTllZDg0Yzk0YSUyMiUyQyUyMl90eXBlJTIyJTNBJTIyYmxvY2slMjIlMkMlMjJjaGlsZHJlbiUyMiUzQSU1QiU3QiUyMl9rZXklMjIlM0ElMjJmNjExYTE1OWZhNTElMjIlMkMlMjJfdHlwZSUyMiUzQSUyMnNwYW4lMjIlMkMlMjJtYXJrcyUyMiUzQSU1QiU1RCUyQyUyMnRleHQlMjIlM0ElMjJBV1MlMjBJQU0lMjBJZGVudGl0eSUyMENlbnRlciUyMCUyMiU3RCU1RCUyQyUyMm1hcmtEZWZzJTIyJTNBJTVCJTVEJTJDJTIyc3R5bGUlMjIlM0ElMjJoMyUyMiU3RCU1RA==&quot;&gt;AWS IAM Identity Center &lt;/span&gt;&lt;br&gt;AWS SSO&amp;nbsp;&lt;br&gt;" style="sketch=0;points=[[0,0,0],[0.25,0,0],[0.5,0,0],[0.75,0,0],[1,0,0],[0,1,0],[0.25,1,0],[0.5,1,0],[0.75,1,0],[1,1,0],[0,0.25,0],[0,0.5,0],[0,0.75,0],[1,0.25,0],[1,0.5,0],[1,0.75,0]];outlineConnect=0;fontColor=#232F3E;gradientColor=#F54749;gradientDirection=north;fillColor=#C7131F;strokeColor=#ffffff;dashed=0;verticalLabelPosition=bottom;verticalAlign=top;align=center;html=1;fontSize=12;fontStyle=0;aspect=fixed;shape=mxgraph.aws4.resourceIcon;resIcon=mxgraph.aws4.single_sign_on;labelBackgroundColor=default;" parent="U8cxuP6EORDSIx8_-4DE-4" vertex="1">
          <mxGeometry x="500" y="230" width="78" height="78" as="geometry" />
        </mxCell>
        <mxCell id="U8cxuP6EORDSIx8_-4DE-10" value="Sync User / Groups" style="sketch=0;outlineConnect=0;fontColor=#232F3E;gradientColor=none;fillColor=#D45B07;strokeColor=none;dashed=0;verticalLabelPosition=bottom;verticalAlign=top;align=center;html=1;fontSize=12;fontStyle=0;aspect=fixed;pointerEvents=1;shape=mxgraph.aws4.lambda_function;labelBackgroundColor=default;" parent="U8cxuP6EORDSIx8_-4DE-4" vertex="1">
          <mxGeometry x="270" y="128" width="84" height="84" as="geometry" />
        </mxCell>
        <mxCell id="U8cxuP6EORDSIx8_-4DE-12" value="CloudFormation" style="sketch=0;points=[[0,0,0],[0.25,0,0],[0.5,0,0],[0.75,0,0],[1,0,0],[0,1,0],[0.25,1,0],[0.5,1,0],[0.75,1,0],[1,1,0],[0,0.25,0],[0,0.5,0],[0,0.75,0],[1,0.25,0],[1,0.5,0],[1,0.75,0]];points=[[0,0,0],[0.25,0,0],[0.5,0,0],[0.75,0,0],[1,0,0],[0,1,0],[0.25,1,0],[0.5,1,0],[0.75,1,0],[1,1,0],[0,0.25,0],[0,0.5,0],[0,0.75,0],[1,0.25,0],[1,0.5,0],[1,0.75,0]];outlineConnect=0;fontColor=#232F3E;gradientColor=#F34482;gradientDirection=north;fillColor=#BC1356;strokeColor=#ffffff;dashed=0;verticalLabelPosition=bottom;verticalAlign=top;align=center;html=1;fontSize=12;fontStyle=0;aspect=fixed;shape=mxgraph.aws4.resourceIcon;resIcon=mxgraph.aws4.cloudformation;labelBackgroundColor=default;" parent="U8cxuP6EORDSIx8_-4DE-4" vertex="1">
          <mxGeometry x="50" y="196" width="78" height="78" as="geometry" />
        </mxCell>
        <mxCell id="U8cxuP6EORDSIx8_-4DE-13" value="" style="edgeStyle=orthogonalEdgeStyle;html=1;endArrow=block;elbow=vertical;startArrow=none;endFill=1;strokeColor=#545B64;rounded=0;fontColor=#FF0000;" parent="U8cxuP6EORDSIx8_-4DE-4" edge="1" target="U8cxuP6EORDSIx8_-4DE-10" source="U8cxuP6EORDSIx8_-4DE-12">
          <mxGeometry width="100" relative="1" as="geometry">
            <mxPoint x="170" y="290" as="sourcePoint" />
            <mxPoint x="312" y="240" as="targetPoint" />
          </mxGeometry>
        </mxCell>
        <mxCell id="U8cxuP6EORDSIx8_-4DE-14" value="&lt;font color=&quot;#000000&quot; style=&quot;background-color: rgb(255, 255, 255);&quot;&gt;Create&lt;/font&gt;" style="edgeLabel;html=1;align=center;verticalAlign=middle;resizable=0;points=[];fontColor=#FFFFFF;" parent="U8cxuP6EORDSIx8_-4DE-13" vertex="1" connectable="0">
          <mxGeometry x="-0.2414" y="1" relative="1" as="geometry">
            <mxPoint as="offset" />
          </mxGeometry>
        </mxCell>
        <mxCell id="U8cxuP6EORDSIx8_-4DE-17" value="" style="edgeStyle=orthogonalEdgeStyle;html=1;endArrow=block;elbow=vertical;startArrow=none;endFill=1;strokeColor=#545B64;rounded=0;fontColor=#000000;" parent="U8cxuP6EORDSIx8_-4DE-4" source="U8cxuP6EORDSIx8_-4DE-10" target="U8cxuP6EORDSIx8_-4DE-6" edge="1">
          <mxGeometry width="100" relative="1" as="geometry">
            <mxPoint x="340" y="290" as="sourcePoint" />
            <mxPoint x="440" y="290" as="targetPoint" />
            <Array as="points">
              <mxPoint x="410" y="170" />
              <mxPoint x="410" y="279" />
            </Array>
          </mxGeometry>
        </mxCell>
        <mxCell id="U8cxuP6EORDSIx8_-4DE-18" value="Create Sync Filter" style="edgeLabel;html=1;align=center;verticalAlign=middle;resizable=0;points=[];fontColor=#000000;" parent="U8cxuP6EORDSIx8_-4DE-17" vertex="1" connectable="0">
          <mxGeometry x="-0.0264" y="-2" relative="1" as="geometry">
            <mxPoint as="offset" />
          </mxGeometry>
        </mxCell>
        <mxCell id="m4mujrtVWW_Xx9LaZkG2-1" value="AWS Ad Connector&amp;nbsp;" style="sketch=0;points=[[0,0,0],[0.25,0,0],[0.5,0,0],[0.75,0,0],[1,0,0],[0,1,0],[0.25,1,0],[0.5,1,0],[0.75,1,0],[1,1,0],[0,0.25,0],[0,0.5,0],[0,0.75,0],[1,0.25,0],[1,0.5,0],[1,0.75,0]];outlineConnect=0;fontColor=#232F3E;fillColor=#DD344C;strokeColor=#ffffff;dashed=0;verticalLabelPosition=bottom;verticalAlign=top;align=center;html=1;fontSize=12;fontStyle=0;aspect=fixed;shape=mxgraph.aws4.resourceIcon;resIcon=mxgraph.aws4.directory_service;" vertex="1" parent="U8cxuP6EORDSIx8_-4DE-4">
          <mxGeometry x="50" y="50" width="78" height="78" as="geometry" />
        </mxCell>
        <mxCell id="m4mujrtVWW_Xx9LaZkG2-2" value="" style="edgeStyle=orthogonalEdgeStyle;html=1;endArrow=none;elbow=vertical;startArrow=block;startFill=1;strokeColor=#545B64;rounded=0;exitX=1;exitY=0.5;exitDx=0;exitDy=0;exitPerimeter=0;" edge="1" parent="U8cxuP6EORDSIx8_-4DE-4" source="m4mujrtVWW_Xx9LaZkG2-1" target="U8cxuP6EORDSIx8_-4DE-10">
          <mxGeometry width="100" relative="1" as="geometry">
            <mxPoint x="180" y="90" as="sourcePoint" />
            <mxPoint x="280" y="90" as="targetPoint" />
            <Array as="points">
              <mxPoint x="312" y="89" />
            </Array>
          </mxGeometry>
        </mxCell>
        <mxCell id="m4mujrtVWW_Xx9LaZkG2-3" value="Query LDAP(s)" style="edgeLabel;html=1;align=center;verticalAlign=middle;resizable=0;points=[];" vertex="1" connectable="0" parent="m4mujrtVWW_Xx9LaZkG2-2">
          <mxGeometry x="0.0384" y="-1" relative="1" as="geometry">
            <mxPoint as="offset" />
          </mxGeometry>
        </mxCell>
        <mxCell id="m4mujrtVWW_Xx9LaZkG2-4" value="" style="sketch=0;points=[[0,0,0],[0.25,0,0],[0.5,0,0],[0.75,0,0],[1,0,0],[0,1,0],[0.25,1,0],[0.5,1,0],[0.75,1,0],[1,1,0],[0,0.25,0],[0,0.5,0],[0,0.75,0],[1,0.25,0],[1,0.5,0],[1,0.75,0]];outlineConnect=0;fontColor=#232F3E;fillColor=#DD344C;strokeColor=#ffffff;dashed=0;verticalLabelPosition=bottom;verticalAlign=top;align=center;html=1;fontSize=12;fontStyle=0;aspect=fixed;shape=mxgraph.aws4.resourceIcon;resIcon=mxgraph.aws4.secrets_manager;" vertex="1" parent="U8cxuP6EORDSIx8_-4DE-4">
          <mxGeometry x="500" y="20" width="78" height="78" as="geometry" />
        </mxCell>
        <mxCell id="bOQmzlq-sCdzd3ZZO5CD-5" value="" style="edgeStyle=orthogonalEdgeStyle;html=1;endArrow=block;elbow=vertical;startArrow=none;endFill=1;strokeColor=#545B64;rounded=0;" parent="U8cxuP6EORDSIx8_-4DE-4" edge="1">
          <mxGeometry width="100" relative="1" as="geometry">
            <mxPoint x="324" y="240" as="sourcePoint" />
            <mxPoint x="324" y="650" as="targetPoint" />
            <Array as="points">
              <mxPoint x="321" y="240" />
              <mxPoint x="324" y="240" />
              <mxPoint x="324" y="432" />
              <mxPoint x="325" y="432" />
            </Array>
          </mxGeometry>
        </mxCell>
        <mxCell id="bOQmzlq-sCdzd3ZZO5CD-6" value="send notification to" style="edgeLabel;html=1;align=center;verticalAlign=middle;resizable=0;points=[];" parent="bOQmzlq-sCdzd3ZZO5CD-5" vertex="1" connectable="0">
          <mxGeometry x="0.2668" y="-2" relative="1" as="geometry">
            <mxPoint as="offset" />
          </mxGeometry>
        </mxCell>
        <mxCell id="U8cxuP6EORDSIx8_-4DE-20" value="&lt;font color=&quot;#000000&quot; style=&quot;&quot;&gt;Ad Connect&lt;/font&gt;" style="sketch=0;points=[[0,0,0],[0.25,0,0],[0.5,0,0],[0.75,0,0],[1,0,0],[0,1,0],[0.25,1,0],[0.5,1,0],[0.75,1,0],[1,1,0],[0,0.25,0],[0,0.5,0],[0,0.75,0],[1,0.25,0],[1,0.5,0],[1,0.75,0]];outlineConnect=0;fontColor=#232F3E;gradientColor=#F54749;gradientDirection=north;fillColor=#C7131F;strokeColor=#ffffff;dashed=0;verticalLabelPosition=bottom;verticalAlign=top;align=center;html=1;fontSize=12;fontStyle=0;aspect=fixed;shape=mxgraph.aws4.resourceIcon;resIcon=mxgraph.aws4.directory_service;labelBackgroundColor=#FFFFFF;labelBorderColor=none;" parent="U8cxuP6EORDSIx8_-4DE-4" vertex="1">
          <mxGeometry x="710" y="230" width="78" height="78" as="geometry" />
        </mxCell>
        <mxCell id="U8cxuP6EORDSIx8_-4DE-21" value="sync user /groups from&amp;nbsp;" style="edgeStyle=orthogonalEdgeStyle;html=1;endArrow=block;elbow=vertical;startArrow=none;endFill=1;strokeColor=#545B64;rounded=0;fontColor=#000000;entryX=0;entryY=0.5;entryDx=0;entryDy=0;entryPerimeter=0;" parent="U8cxuP6EORDSIx8_-4DE-4" source="U8cxuP6EORDSIx8_-4DE-6" target="U8cxuP6EORDSIx8_-4DE-20" edge="1">
          <mxGeometry width="100" relative="1" as="geometry">
            <mxPoint x="520" y="190" as="sourcePoint" />
            <mxPoint x="620" y="190" as="targetPoint" />
          </mxGeometry>
        </mxCell>
        <mxCell id="m4mujrtVWW_Xx9LaZkG2-5" value="" style="edgeStyle=orthogonalEdgeStyle;html=1;endArrow=block;elbow=vertical;startArrow=none;endFill=1;strokeColor=#545B64;rounded=0;" edge="1" parent="U8cxuP6EORDSIx8_-4DE-4" target="m4mujrtVWW_Xx9LaZkG2-4">
          <mxGeometry width="100" relative="1" as="geometry">
            <mxPoint x="370" y="140" as="sourcePoint" />
            <mxPoint x="470" y="140" as="targetPoint" />
          </mxGeometry>
        </mxCell>
        <mxCell id="m4mujrtVWW_Xx9LaZkG2-6" value="retrieve AD / LDAP(s) Credentials" style="edgeLabel;html=1;align=center;verticalAlign=middle;resizable=0;points=[];" vertex="1" connectable="0" parent="m4mujrtVWW_Xx9LaZkG2-5">
          <mxGeometry x="0.094" y="1" relative="1" as="geometry">
            <mxPoint as="offset" />
          </mxGeometry>
        </mxCell>
        <mxCell id="m4mujrtVWW_Xx9LaZkG2-8" value="CronJob" style="sketch=0;outlineConnect=0;fontColor=#232F3E;gradientColor=none;fillColor=#E7157B;strokeColor=none;dashed=0;verticalLabelPosition=bottom;verticalAlign=top;align=center;html=1;fontSize=12;fontStyle=0;aspect=fixed;pointerEvents=1;shape=mxgraph.aws4.event_time_based;" vertex="1" parent="U8cxuP6EORDSIx8_-4DE-4">
          <mxGeometry x="50" y="340" width="78" height="78" as="geometry" />
        </mxCell>
        <mxCell id="m4mujrtVWW_Xx9LaZkG2-9" value="" style="edgeStyle=orthogonalEdgeStyle;html=1;endArrow=block;elbow=vertical;startArrow=none;endFill=1;strokeColor=#545B64;rounded=0;" edge="1" parent="U8cxuP6EORDSIx8_-4DE-4" target="U8cxuP6EORDSIx8_-4DE-10">
          <mxGeometry width="100" relative="1" as="geometry">
            <mxPoint x="140" y="380" as="sourcePoint" />
            <mxPoint x="240" y="380" as="targetPoint" />
            <Array as="points">
              <mxPoint x="140" y="381" />
              <mxPoint x="240" y="381" />
              <mxPoint x="240" y="170" />
            </Array>
          </mxGeometry>
        </mxCell>
        <mxCell id="m4mujrtVWW_Xx9LaZkG2-10" value="trigger" style="edgeLabel;html=1;align=center;verticalAlign=middle;resizable=0;points=[];" vertex="1" connectable="0" parent="m4mujrtVWW_Xx9LaZkG2-9">
          <mxGeometry x="-0.5183" y="-3" relative="1" as="geometry">
            <mxPoint as="offset" />
          </mxGeometry>
        </mxCell>
        <mxCell id="bOQmzlq-sCdzd3ZZO5CD-2" value="Documentation Bucket" style="sketch=0;outlineConnect=0;fontColor=#232F3E;gradientColor=none;fillColor=#3F8624;strokeColor=none;dashed=0;verticalLabelPosition=bottom;verticalAlign=top;align=center;html=1;fontSize=12;fontStyle=0;aspect=fixed;pointerEvents=1;shape=mxgraph.aws4.bucket;labelBackgroundColor=default;" parent="U8cxuP6EORDSIx8_-4DE-3" vertex="1">
          <mxGeometry x="416" y="530" width="75" height="78" as="geometry" />
        </mxCell>
        <mxCell id="bOQmzlq-sCdzd3ZZO5CD-3" value="" style="edgeStyle=orthogonalEdgeStyle;html=1;endArrow=block;elbow=vertical;startArrow=none;endFill=1;strokeColor=#545B64;rounded=0;" parent="U8cxuP6EORDSIx8_-4DE-3" target="bOQmzlq-sCdzd3ZZO5CD-2" edge="1">
          <mxGeometry width="100" relative="1" as="geometry">
            <mxPoint x="376" y="280" as="sourcePoint" />
            <mxPoint x="406" y="480" as="targetPoint" />
            <Array as="points">
              <mxPoint x="376" y="350" />
              <mxPoint x="456" y="350" />
            </Array>
          </mxGeometry>
        </mxCell>
        <mxCell id="bOQmzlq-sCdzd3ZZO5CD-4" value="upload documentation" style="edgeLabel;html=1;align=center;verticalAlign=middle;resizable=0;points=[];" parent="bOQmzlq-sCdzd3ZZO5CD-3" vertex="1" connectable="0">
          <mxGeometry x="-0.1156" relative="1" as="geometry">
            <mxPoint as="offset" />
          </mxGeometry>
        </mxCell>
        <mxCell id="bOQmzlq-sCdzd3ZZO5CD-1" value="MS TEAMS" style="shape=image;html=1;verticalAlign=top;verticalLabelPosition=bottom;labelBackgroundColor=#ffffff;imageAspect=0;aspect=fixed;image=https://cdn0.iconfinder.com/data/icons/logos-microsoft-office-365/128/Microsoft_Office-10-128.png" parent="1" vertex="1">
          <mxGeometry x="370" y="730" width="70" height="70" as="geometry" />
        </mxCell>
      </root>
    </mxGraphModel>
  </diagram>
</mxfile>
